<svg id="Layer_1" data-name="Layer 1" xmlns="http://www.w3.org/2000/svg" viewBox="0 0 571.4 521.33"><defs><style>.cls-1,.cls-10{fill:#d8dbd7;}.cls-1,.cls-13,.cls-16,.cls-18,.cls-8{stroke:#010200;}.cls-1,.cls-11,.cls-13,.cls-14,.cls-15,.cls-16,.cls-17,.cls-18,.cls-2,.cls-6,.cls-7,.cls-8{stroke-width:3px;}.cls-15,.cls-18,.cls-2{fill:none;}.cls-15,.cls-17,.cls-2,.cls-6,.cls-7{stroke:#000;}.cls-13,.cls-3,.cls-6,.cls-8{fill:#3b94ec;}.cls-11,.cls-17,.cls-4,.cls-7{fill:#fff;}.cls-5{fill:#231f20;}.cls-11,.cls-13,.cls-14,.cls-15,.cls-7{stroke-linecap:round;stroke-linejoin:round;}.cls-9{fill:#2281d1;}.cls-11{stroke:#020500;}.cls-12{fill:#020500;}.cls-14{fill:#3381e0;stroke:#000102;}.cls-16{fill:#d8e5ef;}.cls-17{stroke-linecap:square;stroke-linejoin:bevel;}</style></defs><path class="cls-1" d="M9.13,257.5H49.37a2.87,2.87,0,0,1,2.87,2.87V300.6a2.87,2.87,0,0,1-2.87,2.87H9.13a2.87,2.87,0,0,1-2.87-2.87V260.36A2.86,2.86,0,0,1,9.13,257.5Z"/><polyline class="cls-2" points="41.93 274.29 26.76 289.19 18.76 279.98"/><path class="cls-3" d="M467.26,311.82a10.19,10.19,0,0,0-18.12-6.4,10.19,10.19,0,0,0-18.12,6.4c0,9,13.42,16.88,17.73,17.43a2.33,2.33,0,0,0,.79,0C453.85,328.7,467.26,320.85,467.26,311.82Z"/><path class="cls-3" d="M144.78,53.57a17.39,17.39,0,1,0-28.92,13L127.4,78.12l11.53-11.54A17.34,17.34,0,0,0,144.78,53.57Z"/><path class="cls-4" d="M137.93,53A10.54,10.54,0,1,1,127.4,42.51,10.54,10.54,0,0,1,137.93,53Z"/><path class="cls-3" d="M478.75,210.22l-8-8.24a6.63,6.63,0,0,0-4.73-2h-4a6.26,6.26,0,0,0-4.64,2.07L450,210.22a8.79,8.79,0,0,0-1.59,5.05v42.41a6.25,6.25,0,0,0,6.25,6.25h19.47a6.26,6.26,0,0,0,6.26-6.25V215.27A8.88,8.88,0,0,0,478.75,210.22Zm-14.39,1.93a3.83,3.83,0,1,1,3.82-3.83A3.82,3.82,0,0,1,464.36,212.15Z"/><path class="cls-5" d="M465.84,205.51h-3l-.29-.57c-7.56-14.74-9.73-26.11-6.12-32a8.5,8.5,0,0,1,7.92-4h.26a8.41,8.41,0,0,1,7.59,4c3.61,5.91,1.44,17.28-6.12,32Zm-1.69-2.09h.41c6.88-13.6,9-24.29,5.9-29.41a6.43,6.43,0,0,0-6.07-3h-.33a6.33,6.33,0,0,0-5.81,3C455.12,179.13,457.28,189.82,464.15,203.42Z"/><path class="cls-5" d="M466.09,205.92h-3.46l-.41-.79c-7.62-14.87-9.79-26.39-6.1-32.42a8.81,8.81,0,0,1,7.95-4.21h.58a8.8,8.8,0,0,1,7.94,4.21c3.69,6,1.52,17.55-6.1,32.42Zm-3-.82h2.45l.17-.34c7.49-14.61,9.67-25.84,6.14-31.62a8,8,0,0,0-7.24-3.82h-.58a8,8,0,0,0-7.25,3.82c-3.53,5.78-1.36,17,6.13,31.62Zm1.68-1.27h-.91l-.11-.22c-6.94-13.72-9.08-24.59-5.89-29.82a6.73,6.73,0,0,1,6.16-3.2h.59a6.73,6.73,0,0,1,6.16,3.2c3.2,5.24,1.05,16.1-5.89,29.82Zm-.75-32.42a5.94,5.94,0,0,0-5.46,2.81c-3,4.94-.92,15.39,5.75,28.69,6.68-13.3,8.78-23.74,5.76-28.69a6,6,0,0,0-5.46-2.81h-.59Z"/><path class="cls-5" d="M465.84,205.51h-3l-.29-.57c-7.56-14.74-9.73-26.11-6.12-32a8.5,8.5,0,0,1,7.92-4h.26a8.41,8.41,0,0,1,7.59,4c3.61,5.91,1.44,17.28-6.12,32Zm-1.69-2.09h.41c6.88-13.6,9-24.29,5.9-29.41a6.43,6.43,0,0,0-6.07-3h-.33a6.33,6.33,0,0,0-5.81,3C455.12,179.13,457.28,189.82,464.15,203.42Z"/><path class="cls-5" d="M466.09,205.92h-3.46l-.41-.79c-7.62-14.87-9.79-26.39-6.1-32.42a8.81,8.81,0,0,1,7.95-4.21h.58a8.8,8.8,0,0,1,7.94,4.21c3.69,6,1.52,17.55-6.1,32.42Zm-3-.82h2.45l.17-.34c7.49-14.61,9.67-25.84,6.14-31.62a8,8,0,0,0-7.24-3.82h-.58a8,8,0,0,0-7.25,3.82c-3.53,5.78-1.36,17,6.13,31.62Zm1.68-1.27h-.91l-.11-.22c-6.94-13.72-9.08-24.59-5.89-29.82a6.73,6.73,0,0,1,6.16-3.2h.59a6.73,6.73,0,0,1,6.16,3.2c3.2,5.24,1.05,16.1-5.89,29.82Zm-.75-32.42a5.94,5.94,0,0,0-5.46,2.81c-3,4.94-.92,15.39,5.75,28.69,6.68-13.3,8.78-23.74,5.76-28.69a6,6,0,0,0-5.46-2.81h-.59Z"/><rect class="cls-4" x="454.77" y="217.28" width="19.18" height="39.04"/><rect class="cls-6" x="407.29" y="27.86" width="97.65" height="49.42"/><path class="cls-6" d="M417.7,68.64h78V37.4h-78Z"/><path class="cls-7" d="M475.39,53a18.53,18.53,0,1,1-18.53-18.53A18.53,18.53,0,0,1,475.39,53Z"/><path class="cls-7" d="M450.37,59.21a5,5,0,0,0,5.28,4.93H458c6.81,0,7.88-10.66,0-10.55l-2.35-.22c-6.91.06-7-10.51,0-10.54H458c3.53,0,5.48,2.29,5.48,4.92"/><path d="M490.94,54.36a5,5,0,1,1-5-5A5,5,0,0,1,490.94,54.36Z"/><path d="M427.58,59.16a5,5,0,1,1,0-10C434.22,49.12,434.23,59.16,427.58,59.16Z"/><line class="cls-7" x1="456.95" y1="39.42" x2="456.95" y2="67.55"/><path class="cls-3" d="M246.85,37a4,4,0,0,0-3.35,1.7h0a1.21,1.21,0,0,1-1,.49,1.19,1.19,0,0,1-1.12-.77V27.19H230.52A1.21,1.21,0,0,1,229.44,26a1.23,1.23,0,0,1,.49-1h0a4.05,4.05,0,0,0,1.68-3.38,4.39,4.39,0,0,0-8.78,0A4,4,0,0,0,224.52,25h0a1.22,1.22,0,0,1-.6,2.19H213.06V38a1.23,1.23,0,0,0,1.21,1.23,1.21,1.21,0,0,0,1-.5h0A4,4,0,0,1,218.6,37a4.41,4.41,0,0,1,0,8.82,4,4,0,0,1-3.35-1.69h0a1.22,1.22,0,0,0-2.19.74V55.66h10.86a1.22,1.22,0,0,1,.6,2.19h0a4,4,0,0,0-1.69,3.38,4.39,4.39,0,0,0,8.78,0,4.05,4.05,0,0,0-1.68-3.38h0a1.23,1.23,0,0,1-.49-1,1.21,1.21,0,0,1,1.08-1.21H241.4V44.43a1.2,1.2,0,0,1,2.1-.28h0a4,4,0,0,0,3.35,1.68,4.41,4.41,0,0,0,0-8.81Z"/><path class="cls-7" d="M332.61,61l8.73,26.48A27.9,27.9,0,0,0,357.52,73.8Z"/><path class="cls-8" d="M305.31,55.53h0c-.2,2.56-.54,1.73-.53,5.5h0A27.89,27.89,0,0,0,313,80.69L332.61,61V33A27.93,27.93,0,0,0,305.31,55.53Z"/><path class="cls-7" d="M332.61,61,313,80.69h0a27.93,27.93,0,0,0,28.38,6.82Z"/><path class="cls-7" d="M345.41,36h0a28,28,0,0,0-12.76-3V61l25,12.76A28,28,0,0,0,345.41,36Z"/><path class="cls-9" d="M375.52,390.72a12.65,12.65,0,0,0-7.54,2.17,12.44,12.44,0,0,0-3.29,3.63,11.51,11.51,0,0,0-1.76,4.63h18.24l-.72,3.58h-18c0,.38,0,.73,0,1.08,0,1.36,0,2.19,0,2.46h17.23l-.74,3.58H363.06q1.13,6.12,5.4,8.69a12.72,12.72,0,0,0,6.66,1.85q5,0,7.81-2.62v5.51a17.39,17.39,0,0,1-7.38,1.55q-12.09,0-16.35-10.06a28.6,28.6,0,0,1-1.46-4.92h-4.1l.75-3.58h2.81c-.05-.75-.08-1.56-.08-2.44,0-.35,0-.72,0-1.1h-3.51l.75-3.58h3.11q1.65-8.72,8.63-12.52a19.47,19.47,0,0,1,9.5-2.35,15.22,15.22,0,0,1,8.37,2.17l-1.07,5A11.31,11.31,0,0,0,375.52,390.72Z"/><path class="cls-9" d="M259.93,420.2l8.32-8.77a6.52,6.52,0,0,1-.5-2.47,5.79,5.79,0,1,1,5.78,6.09,5.46,5.46,0,0,1-2.34-.53l-5.4,5.68Z"/><path class="cls-9" d="M265.79,420.2l-8.31-8.77A6.51,6.51,0,0,0,258,409a5.78,5.78,0,1,0-5.77,6.09,5.46,5.46,0,0,0,2.34-.53l5.39,5.68Z"/><path class="cls-1" d="M306.2,472.9c1.22,8.4-4.94,16-13,16H229.83c-8,0-14.15-7.58-12.85-15.93l9.2-50.8h71.39Z"/><path class="cls-9" d="M301.69,421.07A3.84,3.84,0,0,1,298,425H225.7a3.94,3.94,0,0,1,0-7.87H298A3.84,3.84,0,0,1,301.69,421.07Z"/><path class="cls-9" d="M240.12,448.56a10.25,10.25,0,0,1,1.62-6.18,8,8,0,0,1,3.66-2.94,10.83,10.83,0,0,1,3.74-.73,9.69,9.69,0,0,1,6.27,2.31c1.86,1.54,2.8,4.05,2.8,7.54a13,13,0,0,1-.81,4.44,8.26,8.26,0,0,1-8.26,5.43,10.4,10.4,0,0,1-3.08-.48,8.39,8.39,0,0,1-2.9-1.62,8.47,8.47,0,0,1-2.21-3.1A11.61,11.61,0,0,1,240.12,448.56Zm5.18,0a6.92,6.92,0,0,0,1.2,4.53,3.16,3.16,0,0,0,5.28,0,6.92,6.92,0,0,0,1.2-4.53,8.29,8.29,0,0,0-.65-3.61,3.88,3.88,0,0,0-1.52-1.84,3,3,0,0,0-3.35,0,4.07,4.07,0,0,0-1.53,1.84A8.47,8.47,0,0,0,245.3,448.58Zm2.16,25.28,22-34.51h7.91l-22,34.51Zm19.83-9.22c0-3.46.95-6,2.83-7.53a9.53,9.53,0,0,1,12.49,0q2.82,2.34,2.82,7.53a10.61,10.61,0,0,1-1.43,5.84,8,8,0,0,1-3.51,3.12,10.11,10.11,0,0,1-4.11.9,10.23,10.23,0,0,1-4.14-.91,8,8,0,0,1-3.52-3.11A10.59,10.59,0,0,1,267.29,464.64Zm5.23,0a7.22,7.22,0,0,0,1.15,4.47,3.38,3.38,0,0,0,2.71,1.5,3.43,3.43,0,0,0,1.67-.52,4.09,4.09,0,0,0,1.52-1.83,8.59,8.59,0,0,0,.63-3.62,7.08,7.08,0,0,0-1.19-4.56,3.5,3.5,0,0,0-2.63-1.41,3.28,3.28,0,0,0-2.74,1.56A7.5,7.5,0,0,0,272.52,464.64Z"/><path class="cls-9" d="M117,450.9V445a21.72,21.72,0,0,1-7.16-2,12.4,12.4,0,0,1-4.77-4.59,16.42,16.42,0,0,1-2.34-7.74l5.91-1.11q.69,4.74,2.43,7a8.58,8.58,0,0,0,5.93,3.5V421.35a24.55,24.55,0,0,1-7.4-2.81,10.77,10.77,0,0,1-4.33-4.34,13.82,13.82,0,0,1,2.92-16.45c2-1.75,4.92-2.81,8.81-3.21v-2.81h3.46v2.81a14.5,14.5,0,0,1,8.14,3,13.33,13.33,0,0,1,4.64,8.78l-6.08.92a10,10,0,0,0-2.17-5.31,8,8,0,0,0-4.53-2.43v16.95a45.21,45.21,0,0,1,5.88,1.72,14.64,14.64,0,0,1,4.48,2.94,11.77,11.77,0,0,1,2.65,4.12,13.84,13.84,0,0,1,.94,5.16,14.11,14.11,0,0,1-14,14.56v5.94Zm0-51.45a8.72,8.72,0,0,0-5.4,2.73,7.67,7.67,0,0,0-2,5.26,7.56,7.56,0,0,0,1.69,5A11.57,11.57,0,0,0,117,415.7Zm3.46,40.62a8.74,8.74,0,0,0,5.67-3,9.23,9.23,0,0,0,2.24-6.31,7.85,7.85,0,0,0-1.59-5.13q-1.58-1.95-6.32-3.48Z"/><path class="cls-10" d="M209.56,458.13c-5-.71-10.11-1.62-15.08-2.69l.81-3.71c4.88,1,9.86,1.94,14.81,2.64Zm-29.93-6.46c-4.88-1.42-9.77-3.05-14.54-4.82l1.33-3.56c4.68,1.74,9.48,3.33,14.28,4.74Zm135.47-4.91-1.33-3.57c4.67-1.74,9.34-3.68,13.88-5.76l1.59,3.46C324.61,443,319.86,445,315.1,446.76ZM150.92,441c-4.63-2.12-9.24-4.43-13.71-6.87l1.82-3.33c4.39,2.4,8.92,4.66,13.47,6.74Zm192-7-1.83-3.33c4.37-2.4,8.72-5,12.93-7.69l2.06,3.19C351.79,429,347.37,431.58,342.92,434ZM99.5,407.94c-3.84-3.33-7.62-6.84-11.22-10.44L91,394.81c3.53,3.53,7.24,7,11,10.25Zm292.28-10.56-2.69-2.68c3.53-3.54,7-7.24,10.26-11l2.87,2.49C398.88,390,395.37,393.79,391.78,397.38ZM77.83,386.3c-3.33-3.84-6.57-7.85-9.63-11.92l3-2.28c3,4,6.19,7.94,9.46,11.71Zm334-12.06-3-2.28c3-4,5.89-8.15,8.6-12.36l3.19,2.06C417.83,365.94,414.89,370.18,411.84,374.24ZM59.45,361.82c-2.76-4.28-5.4-8.7-7.84-13.15L55,346.84c2.39,4.37,5,8.72,7.69,12.92Zm369-13.34-3.34-1.82c2.4-4.39,4.67-8.92,6.75-13.47l3.46,1.58C433.18,339.41,430.87,344,428.43,348.48ZM44.74,335c-2.12-4.62-4.1-9.37-5.88-14.13l3.56-1.33c1.75,4.67,3.69,9.34,5.77,13.87Zm405-43.77-3.71-.81c1.05-4.87,1.95-9.86,2.65-14.81l3.76.54C451.77,281.18,450.86,286.25,449.78,291.22ZM29.1,245.87H25.3v-.27c0-5,.17-10.07.52-15l3.79.26c-.34,4.89-.51,9.86-.51,14.78Zm2.08-30-3.76-.53c.71-5,1.61-10.12,2.68-15.08l3.71.8C32.77,205.92,31.88,210.91,31.18,215.86ZM446,200.27c-1.08-4.89-2.34-9.8-3.75-14.58l3.64-1.08c1.44,4.87,2.73,9.87,3.82,14.84ZM37.51,186.46l-3.65-1.07c1.42-4.88,3-9.77,4.81-14.54l3.56,1.32C40.49,176.86,38.9,181.66,37.51,186.46Zm399.91-15c-1.75-4.66-3.7-9.33-5.78-13.87l3.45-1.58c2.12,4.62,4.11,9.37,5.89,14.12ZM48,158.25l-3.46-1.58c2.11-4.63,4.41-9.24,6.85-13.72l3.34,1.83C52.32,149.17,50.06,153.7,48,158.25Zm376.88-14.12c-2.41-4.38-5-8.72-7.72-12.91l3.19-2.07c2.76,4.27,5.41,8.69,7.86,13.15ZM62.4,131.82l-3.2-2c2.75-4.29,5.69-8.52,8.74-12.6l3,2.28C68,123.45,65.1,127.61,62.4,131.82Zm346.14-12.94c-3-4-6.2-7.92-9.48-11.69l2.87-2.49c3.33,3.83,6.58,7.83,9.64,11.9ZM388.78,96.2c-3.53-3.52-7.25-7-11-10.24l2.48-2.87c3.86,3.32,7.64,6.83,11.24,10.42ZM101.66,86.42l-2.49-2.87C103,80.22,107,77,111.08,73.92l2.28,3C109.36,80,105.43,83.14,101.66,86.42ZM152,53.88l-1.58-3.46c4.62-2.12,9.38-4.1,14.12-5.88l1.34,3.56C161.25,49.85,156.59,51.79,152,53.88Zm28.15-10.56-1.08-3.64C184,38.24,189,37,194,35.87l.81,3.72C189.89,40.65,185,41.91,180.19,43.32Zm104.21-3.9c-4.89-1.05-9.87-1.93-14.82-2.63l.53-3.76c5,.71,10.11,1.61,15.08,2.67Z"/><path class="cls-3" d="M92.24,71.23c0-11.32-12.47-20.49-27.86-20.49S36.52,59.91,36.52,71.23c0,10.64,11,19.38,25.13,20.39,6.4,6.57,18.06,12,25.53,12.77-5.68-3.76-8.65-10.56-10.05-15C86.1,86,92.24,79.16,92.24,71.23Z"/><path class="cls-7" d="M34.7,27.59C15.53,27.59,0,39.27,0,53.69c0,9.94,7.39,18.59,18.27,23-2,4.88-5.33,10.68-10.68,14.23,7.29-.77,18-5.24,25.79-11.15.44,0,.88,0,1.32,0,19.17,0,34.7-11.69,34.7-26.1S53.87,27.59,34.7,27.59Z"/><path class="cls-3" d="M21.33,53.6a5,5,0,1,1-5-5A5,5,0,0,1,21.33,53.6Z"/><path class="cls-3" d="M40.05,53.72a5,5,0,1,1-4.95-4.95A5,5,0,0,1,40.05,53.72Z"/><path class="cls-3" d="M58.81,53.72a5,5,0,1,1-5-4.95A5,5,0,0,1,58.81,53.72Z"/><rect class="cls-11" x="105.04" y="163.33" width="281.94" height="157.4"/><rect class="cls-11" x="105.04" y="163.33" width="281.94" height="157.4"/><rect class="cls-1" x="127.32" y="180.7" width="130.28" height="109.74"/><path class="cls-6" d="M400.5,344.54H92.81V321.69a10.61,10.61,0,0,1,10.62-10.62H389.87a10.62,10.62,0,0,1,10.63,10.62Z"/><rect class="cls-1" x="298.87" y="192.29" width="66.22" height="143.24"/><rect class="cls-4" x="321.67" y="192.29" width="21.89" height="143.24"/><path class="cls-1" d="M393.42,125.67A16.41,16.41,0,0,0,377,109.26H106a16.41,16.41,0,0,0-16.41,16.41v59.86H393.42Z"/><path class="cls-12" d="M317.05,273.79a4.83,4.83,0,1,1-4.82-4.83A4.82,4.82,0,0,1,317.05,273.79Z"/><path class="cls-4" d="M276.9,345.8a1.91,1.91,0,0,1-1.9-1.9v-6.44a9.63,9.63,0,0,1,9.63-9.62h94a9.63,9.63,0,0,1,9.63,9.62v6.44a1.9,1.9,0,0,1-1.9,1.9Z"/><path class="cls-12" d="M378.61,329.74a7.72,7.72,0,0,1,7.73,7.72v6.44H276.9v-6.44a7.73,7.73,0,0,1,7.73-7.72h94m0-3.8h-94a11.54,11.54,0,0,0-11.53,11.52v6.44a3.8,3.8,0,0,0,3.8,3.8H386.34a3.8,3.8,0,0,0,3.8-3.8v-6.44a11.53,11.53,0,0,0-11.53-11.52Z"/><path class="cls-13" d="M406,185.55v-.14H65.32v.14H55.47v12.24a14.36,14.36,0,0,0,28.72.35,14.34,14.34,0,0,0,28.68-.12H113a14.35,14.35,0,0,0,28.69,0h0a14.34,14.34,0,0,0,28.68,0h.05a14.35,14.35,0,0,0,28.69,0h.07a14.35,14.35,0,0,0,28.38,2.72,14.36,14.36,0,0,0,28.41-2.6,14.34,14.34,0,0,0,28.68-.12h.09a14.34,14.34,0,0,0,28.68,0h.05a14.35,14.35,0,0,0,28.69,0h.05a14.34,14.34,0,0,0,28.68,0H371a14.35,14.35,0,0,0,28.69,0h.07a14.36,14.36,0,0,0,28.72-.23V185.55Z"/><polygon class="cls-14" points="394.39 150.45 428.82 185.53 55.48 185.53 89.59 150.45 394.39 150.45"/><path class="cls-4" d="M539.71,54.33H476.16a7,7,0,0,0-7,7v38a7,7,0,0,0,7,7h63.55a7,7,0,0,0,7-7v-38A7,7,0,0,0,539.71,54.33Z"/><path class="cls-15" d="M539.71,54.33H476.16a7,7,0,0,0-7,7v38a7,7,0,0,0,7,7h63.55a7,7,0,0,0,7-7v-38A7,7,0,0,0,539.71,54.33Z"/><path class="cls-3" d="M496.38,71a3.88,3.88,0,0,1-3.88,3.87h-12A3.88,3.88,0,0,1,476.61,71V66.34a3.88,3.88,0,0,1,3.88-3.87h12a3.88,3.88,0,0,1,3.88,3.87Z"/><line class="cls-7" x1="487" y1="95.24" x2="478.73" y2="95.24"/><line class="cls-7" x1="503.56" y1="95.24" x2="495.29" y2="95.24"/><line class="cls-7" x1="520.13" y1="95.24" x2="511.86" y2="95.24"/><line class="cls-7" x1="536.7" y1="95.24" x2="528.42" y2="95.24"/><line class="cls-7" x1="515.16" y1="85.1" x2="478.73" y2="85.1"/><path class="cls-9" d="M425.51,117.13a1.25,1.25,0,0,1,2.25,0l4,8.2a2.49,2.49,0,0,0,1.83,1.32l9,1.31a1.26,1.26,0,0,1,.7,2.14l-6.55,6.38a2.41,2.41,0,0,0-.69,2.14l1.54,9a1.26,1.26,0,0,1-1.82,1.33l-8.09-4.26a2.42,2.42,0,0,0-2.25,0L417.42,149a1.26,1.26,0,0,1-1.82-1.33l1.54-9a2.43,2.43,0,0,0-.69-2.14l-6.55-6.38a1.25,1.25,0,0,1,.7-2.14l9-1.31a2.45,2.45,0,0,0,1.82-1.32Z"/><path class="cls-1" d="M367.18,450.9c-2.74-.44-16.8.15-10.68-9.62l14.55-23.46c.83-1.24,2.24-1.55,2.24-.44-3.11,78.14-4.66,89.9-3.66,103.15H504.35c.5-8,.17-8.84-.82-32.48h.05l34-1.75c5.75,0,43.6-10.46,31.39-50.58l-21.8-53.21c-9.59-24.42-22.93-36-35.17-38.23L474.12,339l-36.36,58.05-41-56.09-34.93,3.47c-12.23,2.27-23.74,9.29-34.2,36.76L306,435.51c-7.85,20.28-20.24,56.24,37.33,56.9Zm134.65-33.61,21.81,42.86c.44,4.79-16.48,19.75-20.21,25.56-.68-16.1-1.66-37.95-2.87-68.48C500.56,416.12,501.7,416.15,501.83,417.29Z"/><path class="cls-11" d="M467.83,339.6l-1.63-.24c-3.9-.61-6.95-4.62-7-8.81l-1-23.49H415.83l-1,24.32c-.19,3.75-2.61,7.11-8.06,8,3.36,13.76,15.75,57.33,30.56,57.33S464.37,353.24,467.83,339.6Z"/><path class="cls-11" d="M472.92,257.15l2.83.18c4.25,1.18,8.84,5.19,7.76,11.66-1,5.88-1.44,6.38-2.64,13.68-1.7,10.33-10.14,7-10.14,7Z"/><path class="cls-11" d="M402.76,257.15l-2.84.18c-4.25,1.18-8.84,5.19-7.76,11.66,1,5.88,1.44,6.38,2.64,13.68,1.69,10.33,10.14,7,10.14,7Z"/><path class="cls-11" d="M437.61,227.59h0l-34.43.14c0,70.58-1.6,70.82,4.79,77.47,16.24,16.91,13.87,16,29.93,16v0c7.29,0,13.42.87,19.05-5,10.67-11.08,15.39-14.37,15.39-22.94V227.73Z"/><path class="cls-3" d="M392,233s2.62,11.8,9,17.23c3.06,2.61,7,5.89,14.29,11.9,2.83,2.33,4.42,3.89,10.21-1L450.91,238c-1.27,8.9-1.36,17.5,4.28,16.37s15.53-11,20-14.58c9.14-7.47,21.35-30.55-10.58-27.77-1.78.16-11.32-4.59-19.44-6.57C412.08,197.38,389.25,211,392,233Z"/><path class="cls-16" d="M473.07,331.44c-12.46,0-12-.69-12.22,7.55-.18,6.56-2.23,26.3-7.14,32.67l-11.48,17.39c-3.37,4.26-7.18,4.22-10.55,0l-11.55-17.35c-4.9-6.37-6.95-26.11-7.14-32.67-.21-8.26.23-7.55-12.21-7.55a15.43,15.43,0,0,0-15.41,15.46c0,7.41,1.18,15.41,6.57,25.52,7.92,14.86,34.83,24.43,34.83,24.43a23.37,23.37,0,0,0,20.31,0s26.9-9.57,34.83-24.43c5.41-10.15,6.56-18.15,6.56-25.52A15.43,15.43,0,0,0,473.07,331.44Z"/><polygon class="cls-3" points="546.95 429.85 535.81 418.7 546.95 407.55 446.4 407.55 457.55 418.7 446.4 429.85 446.4 429.84 446.4 520.53 547 520.53 547 429.8 546.95 429.85"/><polygon class="cls-7" points="547 407.55 546.95 407.55 547 407.6 547 407.55"/><polygon class="cls-7" points="446.4 407.56 446.4 407.55 446.4 407.55 446.4 407.56"/><rect class="cls-7" x="446.4" y="429.77" width="100.6" height="90.76"/><path class="cls-7" d="M474.61,443.18a3.77,3.77,0,1,1-3.76-3.77A3.76,3.76,0,0,1,474.61,443.18Z"/><path class="cls-7" d="M528.62,443.18a3.77,3.77,0,1,1-3.78-3.77A3.76,3.76,0,0,1,528.62,443.18Z"/><path d="M497.84,484.91a28.5,28.5,0,0,1-28.49-28.5c0-.23,0-.47,0-.7v-8.07h0a1.45,1.45,0,0,1,2.89,0h0v.05a.1.1,0,0,0,0,0v7.49c0,.22,0,.43,0,.64a25.57,25.57,0,1,0,51.14,0c0-.54,0-1.09-.06-1.64v-6.43s0-.09,0-.13a1.46,1.46,0,0,1,1.46-1.46,1.47,1.47,0,0,1,1.46,1.44h0v6.95c0,.6.06,1.21.06,1.82A28.49,28.49,0,0,1,497.84,484.91Z"/><path d="M526.69,447.49a.37.37,0,0,1,0,.15v6.92c0,.61.06,1.24.06,1.85a28.94,28.94,0,1,1-57.87,0c0-.14,0-.29,0-.43v-8.34a.77.77,0,0,1,0-.15,1.9,1.9,0,0,1,3.78.07h0a.53.53,0,0,1,0,.12v7.56c0,.2,0,.41,0,.61a25.12,25.12,0,1,0,50.24,0c0-.54,0-1.07-.06-1.64v-6.37a1.48,1.48,0,0,1,0-.19,1.91,1.91,0,0,1,3.81-.17Zm-54.88,8.37c0-.21,0-.43,0-.64v-7.49a.17.17,0,0,0,0-.07,1,1,0,0,0-2,0,.43.43,0,0,1,0,.11v7.94l0,.7a28,28,0,1,0,56.07,0c0-.6,0-1.2-.06-1.82v-6.82a.5.5,0,0,1,0-.12,1,1,0,0,0-1-1,1,1,0,0,0-1,1,1.35,1.35,0,0,1,0,.18v6.41c0,.55.06,1.1.06,1.66a26,26,0,1,1-52.05,0Z"/><rect class="cls-15" x="446.4" y="407.55" width="100.6" height="112.97"/><path class="cls-7" d="M548.35,460.58s-.43,6.54-.87,13.52c-.28,4.46-7.52,5.59-12.21,6.11-13.21,1.46-15.26,15.26-7.85,20.93,11,8.43,20.63,7.73,27.47,3.92,3.48-1.93,5.07-9.66,6-21.86C561.93,469,557.51,464.34,548.35,460.58Z"/><path class="cls-17" d="M435.75,463.35a4.6,4.6,0,0,0-4.32-4.58v-1.2a5.09,5.09,0,0,0,2.33-4.32A4.9,4.9,0,0,0,429,448.2h-13.6a7.08,7.08,0,0,1-5-6V430.44c0-2.53-.74-9.85-5.94-10.75a4.4,4.4,0,0,0-3.89,1.09v17.88a9.41,9.41,0,0,1-5.85,7.84c-3.3,1.84-5.66,3.82-6.56,8a6.32,6.32,0,0,0-.33,1.94v.16H372.2V483h16.58a8.73,8.73,0,0,0,7.83,5l30.91-.1c2.61,0,4.45-2.85,4.45-4.9a4.74,4.74,0,0,0-1.78-3.92v-1.05c2.72,0,4.21-2.34,4.21-4.74a4.6,4.6,0,0,0-3-4.28v-.92A4.51,4.51,0,0,0,435.75,463.35Z"/><path class="cls-10" d="M338.21,492.35c31.9,1.46,49.15-3.54,49.15-3.54l.41-36.11-27.6-2.57"/><path class="cls-18" d="M338.21,492.35c31.9,1.46,49.77-3.74,49.77-3.74l-.21-35.91-28.83-3"/></svg>