<svg width="1920" height="1080" viewBox="0 0 1920 1080" xmlns="http://www.w3.org/2000/svg"><rect width="1920" height="1080" fill="#3167d3"/><path d="M 0,1080 C 0,1080 0,108 0,108 C 97.40095729013254,88.65924153166421 194.80191458026508,69.31848306332843 271,68 C 347.1980854197349,66.68151693667157 402.1932989690722,83.38530927835052 466,101 C 529.8067010309278,118.61469072164948 602.4248895434462,137.1402798232695 693,129 C 783.5751104565538,120.85972017673048 892.1071428571429,86.05357142857143 982,87 C 1071.892857142857,87.94642857142857 1143.1465390279825,124.64543446244478 1226,123 C 1308.8534609720175,121.35456553755522 1403.3067010309278,81.36469072164948 1484,74 C 1564.6932989690722,66.63530927835052 1631.6266568483065,91.8958026509573 1702,103 C 1772.3733431516935,114.1041973490427 1846.1866715758467,111.05209867452135 1920,108 C 1920,108 1920,1080 1920,1080 Z" fill="#3d1053" opacity="0.06"/><path d="M 0,1080 C 0,1080 0,216 0,216 C 98.64782768777613,213.80191458026508 197.29565537555226,211.60382916053018 263,213 C 328.70434462444774,214.39617083946982 361.46520618556696,219.38659793814435 435,221 C 508.53479381443304,222.61340206185565 622.8435198821797,220.84977908689245 709,213 C 795.1564801178203,205.15022091310755 853.1607142857143,191.21428571428572 929,188 C 1004.8392857142857,184.78571428571428 1098.513622974963,192.29307805596468 1183,205 C 1267.486377025037,217.70692194403532 1342.784793814433,235.61340206185565 1426,236 C 1509.215206185567,236.38659793814435 1600.347201767305,219.25331369661265 1684,213 C 1767.652798232695,206.74668630338735 1843.8263991163476,211.3733431516937 1920,216 C 1920,216 1920,1080 1920,1080 Z" fill="#3d1053" opacity="0.12"/><path d="M 0,1080 C 0,1080 0,324 0,324 C 77.64985272459498,338.9074005891016 155.29970544918996,353.81480117820325 245,346 C 334.70029455081004,338.18519882179675 436.45103092783506,307.64819587628864 505,302 C 573.5489690721649,296.35180412371136 608.8961708394696,315.59241531664213 680,311 C 751.1038291605304,306.40758468335787 857.964285714286,277.98214285714283 949,286 C 1040.035714285714,294.01785714285717 1115.2466863033872,338.4790132547864 1198,336 C 1280.7533136966128,333.5209867452136 1371.048969072165,284.10180412371136 1444,285 C 1516.951030927835,285.89819587628864 1572.5574374079529,337.1137702503682 1649,352 C 1725.4425625920471,366.8862297496318 1822.7212812960236,345.44311487481593 1920,324 C 1920,324 1920,1080 1920,1080 Z" fill="#3d1053" opacity="0.18"/><path d="M 0,1080 C 0,1080 0,432 0,432 C 103.93519882179675,435.8370765832106 207.8703976435935,439.6741531664212 280,434 C 352.1296023564065,428.3258468335788 392.4536082474227,413.1404639175258 459,415 C 525.5463917525773,416.8595360824742 618.3151693667157,435.76399116347574 703,441 C 787.6848306332843,446.23600883652426 864.2857142857144,437.8035714285714 950,437 C 1035.7142857142856,436.1964285714286 1130.5419734904274,443.0217231222386 1211,443 C 1291.4580265095726,442.9782768777614 1357.5463917525772,436.1095360824742 1430,434 C 1502.4536082474228,431.8904639175258 1581.2724594992637,434.5401325478646 1664,435 C 1746.7275405007363,435.4598674521354 1833.3637702503681,433.7299337260677 1920,432 C 1920,432 1920,1080 1920,1080 Z" fill="#3d1053" opacity="0.24"/><path d="M 0,1080 C 0,1080 0,540 0,540 C 52.067930780559635,522.2864506627393 104.13586156111927,504.57290132547865 197,500 C 289.86413843888073,495.42709867452135 423.5244845360826,503.9948453608247 519,523 C 614.4755154639174,542.0051546391753 671.7662002945507,571.4477172312224 738,579 C 804.2337997054493,586.5522827687776 879.4107142857144,572.2142857142857 968,572 C 1056.5892857142856,571.7857142857143 1158.5909425625919,585.6951399116348 1236,573 C 1313.4090574374081,560.3048600883652 1366.2255154639174,521.0051546391753 1442,515 C 1517.7744845360826,508.99484536082474 1616.5069955817378,536.2842415316643 1700,546 C 1783.4930044182622,555.7157584683357 1851.746502209131,547.8578792341679 1920,540 C 1920,540 1920,1080 1920,1080 Z" fill="#3d1053" opacity="0.3"/><path d="M 0,1080 C 0,1080 0,648 0,648 C 101.78681885125184,639.171207658321 203.57363770250367,630.3424153166421 272,639 C 340.4263622974963,647.6575846833579 375.49226804123714,673.8015463917526 439,685 C 502.50773195876286,696.1984536082474 594.4572901325478,692.4513991163476 679,684 C 763.5427098674522,675.5486008836524 840.6785714285713,662.3928571428571 936,659 C 1031.3214285714287,655.6071428571429 1144.8284241531665,661.9771723122238 1224,670 C 1303.1715758468335,678.0228276877762 1348.0077319587629,687.6984536082474 1409,679 C 1469.9922680412371,670.3015463917526 1547.140648011782,643.2290132547864 1635,635 C 1722.859351988218,626.7709867452136 1821.429675994109,637.3854933726068 1920,648 C 1920,648 1920,1080 1920,1080 Z" fill="#3d1053" opacity="0.36"/><path d="M 0,1080 C 0,1080 0,756 0,756 C 96.74981590574376,764.3148011782032 193.49963181148752,772.6296023564064 268,761 C 342.5003681885125,749.3703976435936 394.7512886597939,717.7963917525774 469,716 C 543.2487113402061,714.2036082474226 639.4952135493373,742.1848306332843 728,757 C 816.5047864506627,771.8151693667157 897.2678571428571,773.4642857142858 974,775 C 1050.732142857143,776.5357142857142 1123.4333578792339,777.9580265095728 1196,770 C 1268.5666421207661,762.0419734904272 1340.9987113402062,744.7036082474226 1419,750 C 1497.0012886597938,755.2963917525774 1580.5717967599412,783.2275405007364 1665,788 C 1749.4282032400588,792.7724594992636 1834.7141016200294,774.3862297496319 1920,756 C 1920,756 1920,1080 1920,1080 Z" fill="#3d1053" opacity="0.42"/><path d="M 0,1080 C 0,1080 0,864 0,864 C 72.82916053019147,853.6890648011781 145.65832106038295,843.3781296023564 217,852 C 288.34167893961705,860.6218703976436 358.19587628865975,888.1765463917528 443,896 C 527.8041237113403,903.8234536082472 627.558173784978,891.9156848306332 722,883 C 816.441826215022,874.0843151693668 905.5714285714287,868.1607142857141 990,872 C 1074.4285714285713,875.8392857142859 1154.1561119293078,889.4414580265096 1234,895 C 1313.8438880706922,900.5585419734904 1393.80412371134,898.0734536082474 1470,882 C 1546.19587628866,865.9265463917526 1618.6273932253314,836.2647275405009 1693,831 C 1767.3726067746686,825.7352724594991 1843.6863033873342,844.8676362297496 1920,864 C 1920,864 1920,1080 1920,1080 Z" fill="#3d1053" opacity="0.48"/><path d="M 0,1080 C 0,1080 0,972 0,972 C 58.41678939617083,952.345176730486 116.83357879234165,932.690353460972 211,941 C 305.16642120765835,949.309646539028 435.08247422680404,985.5837628865979 515,999 C 594.917525773196,1012.4162371134021 624.8365243004419,1002.9745949926362 692,988 C 759.1634756995581,973.0254050073638 863.5714285714287,952.5178571428572 960,954 C 1056.4285714285713,955.4821428571428 1144.8777614138437,978.953976435935 1226,983 C 1307.1222385861563,987.046023564065 1380.9175257731958,971.6662371134022 1462,967 C 1543.0824742268042,962.3337628865978 1631.4521354933727,968.3810751104564 1709,971 C 1786.5478645066273,973.6189248895436 1853.2739322533137,972.8094624447717 1920,972 C 1920,972 1920,1080 1920,1080 Z" fill="#3d1053" opacity="0.54"/></svg>